<svg width="150" height="11" viewBox="0 0 462 33" fill="none" xmlns="http://www.w3.org/2000/svg">
<mask id="mask0_1_5223" style="mask-type:luminance" maskUnits="userSpaceOnUse" x="0" y="0" width="54" height="33">
<path d="M1.0225 0.00292969C0.45894 0.00292969 0 0.462053 0 1.02896V3.38196C0 5.08268 1.37403 6.46145 3.0689 6.46145H44.4502C46.2274 6.46145 47.6697 8.42112 47.6697 10.2044C47.6697 11.9877 46.2274 13.4337 44.4502 13.4337H3.0689C1.37403 13.4337 0 14.8125 0 16.5146V31.2737C0 31.8406 0.45894 32.2997 1.0225 32.2997H2.89034C4.58521 32.2997 5.95924 30.9196 5.95924 29.2188V19.8936C5.95924 19.6095 6.18801 19.3799 6.46979 19.3799H43.9703C49.3032 19.3799 53.6262 15.5557 53.6262 10.2058C53.6262 4.85592 49.3032 0.00292969 43.9703 0.00292969H1.0225Z" fill="white"/>
</mask>
<g mask="url(#mask0_1_5223)">
<path d="M53.6105 -0.919193L-0.551758 0.010498L0.0143551 33.2193L54.1767 32.2896L53.6105 -0.919193Z" fill="url(#paint0_linear_1_5223)"/>
</g>
<mask id="mask1_1_5223" style="mask-type:luminance" maskUnits="userSpaceOnUse" x="67" y="0" width="55" height="33">
<path d="M68.9375 0.00139973C68.374 0.00139973 67.915 0.461923 67.915 1.02883V3.38183C67.915 5.08255 69.2891 6.46132 70.9853 6.46132H112.231C113.993 6.46132 115.53 8.33701 115.583 10.1049C115.638 11.9344 114.176 13.435 112.365 13.435H70.9853C69.2891 13.435 67.915 14.8137 67.915 16.5144V31.2736C67.915 31.8405 68.374 32.2996 68.9375 32.2996H70.804C72.5002 32.2996 73.8743 30.9208 73.8743 29.2187V19.8935C73.8743 19.6093 74.1031 19.3798 74.3848 19.3798H96.2452C97.601 19.3798 98.9193 19.8305 99.992 20.6619L113.402 31.0342C114.476 31.8657 115.794 32.315 117.15 32.315H119.864C120.867 32.315 121.665 31.4317 121.526 30.3987C121.465 29.941 121.194 29.5365 120.828 29.2537L108.723 19.8893C108.51 19.7241 108.625 19.3798 108.896 19.3798H111.654C116.889 19.3798 121.35 15.8076 121.536 10.557C121.731 5.04616 117.335 0 111.887 0H68.9375V0.00139973Z" fill="white"/>
</mask>
<g mask="url(#mask1_1_5223)">
<path d="M121.715 -0.92074L67.3634 0.012207L67.9299 33.2406L122.282 32.3076L121.715 -0.92074Z" fill="url(#paint1_linear_1_5223)"/>
</g>
<mask id="mask2_1_5223" style="mask-type:luminance" maskUnits="userSpaceOnUse" x="135" y="0" width="55" height="33">
<path d="M141.787 16.9092V15.3947C141.787 10.4619 145.771 6.46278 150.687 6.46278H174.595C179.51 6.46278 183.495 10.4619 183.495 15.3947V16.9092C183.495 21.842 179.51 25.8397 174.595 25.8397H150.687C145.771 25.8397 141.787 21.842 141.787 16.9092ZM151.177 0.00146484C142.7 0.00146484 135.828 6.89531 135.828 15.4017V16.8994C135.828 25.4058 142.701 32.2997 151.177 32.2997H174.108C182.585 32.2997 189.457 25.4058 189.457 16.8994V15.4017C189.457 6.89531 182.585 0.00146484 174.108 0.00146484H151.177Z" fill="white"/>
</mask>
<g mask="url(#mask2_1_5223)">
<path d="M189.44 -0.916775L135.276 0.0129395L135.842 33.2217L190.006 32.292L189.44 -0.916775Z" fill="url(#paint2_linear_1_5223)"/>
</g>
<mask id="mask3_1_5223" style="mask-type:luminance" maskUnits="userSpaceOnUse" x="203" y="0" width="55" height="33">
<path d="M213.399 0.00146484C208.066 0.00146484 203.743 4.85165 203.743 10.2044C203.743 15.5571 208.066 19.3798 213.399 19.3798H248.193C249.971 19.3798 251.412 20.8258 251.412 22.6091C251.412 24.3924 249.971 25.8383 248.193 25.8383H207.324C205.629 25.8383 204.255 27.2157 204.255 28.9164V31.2694C204.255 31.8363 204.714 32.2955 205.278 32.2955H247.713C253.046 32.2955 257.369 27.959 257.369 22.6077C257.369 17.2564 253.048 13.4308 247.713 13.4308H212.919C211.142 13.4308 209.701 11.9849 209.701 10.2016C209.701 8.41826 211.142 6.45859 212.919 6.45859H253.789C255.483 6.45859 256.857 5.07982 256.857 3.3791V1.02889C256.857 0.461988 256.398 0.00146484 255.835 0.00146484H213.399Z" fill="white"/>
</mask>
<g mask="url(#mask3_1_5223)">
<path d="M257.357 -0.916507L203.194 0.0131836L203.76 33.2206L257.923 32.2909L257.357 -0.916507Z" fill="url(#paint3_linear_1_5223)"/>
</g>
<mask id="mask4_1_5223" style="mask-type:luminance" maskUnits="userSpaceOnUse" x="271" y="0" width="55" height="33">
<path d="M277.617 16.9092V15.3947C277.617 10.4619 281.601 6.46278 286.518 6.46278H310.426C315.34 6.46278 319.326 10.4619 319.326 15.3947V16.9092C319.326 21.842 315.34 25.8397 310.426 25.8397H286.518C281.601 25.8397 277.617 21.842 277.617 16.9092ZM287.006 0.00146484C278.529 0.00146484 271.657 6.89531 271.657 15.4017V16.8994C271.657 25.4058 278.53 32.2997 287.006 32.2997H309.938C318.415 32.2997 325.286 25.4058 325.286 16.8994V15.4017C325.286 6.89531 318.415 0.00146484 309.938 0.00146484H287.006Z" fill="white"/>
</mask>
<g mask="url(#mask4_1_5223)">
<path d="M325.271 -0.916043L271.108 0.0136719L271.674 33.2225L325.837 32.2927L325.271 -0.916043Z" fill="url(#paint4_linear_1_5223)"/>
</g>
<mask id="mask5_1_5223" style="mask-type:luminance" maskUnits="userSpaceOnUse" x="407" y="0" width="55" height="33">
<path d="M410.557 0.00146484C408.862 0.00146484 407.488 1.38023 407.488 3.08235V5.43536C407.488 6.00226 407.946 6.46138 408.511 6.46138H430.81C431.092 6.46138 431.32 6.69235 431.32 6.9765V31.2736C431.32 31.8405 431.78 32.2997 432.343 32.2997H434.21C435.906 32.2997 437.28 30.9209 437.28 29.2188V6.9751C437.28 6.69095 437.509 6.45998 437.791 6.45998H458.044C459.739 6.45998 461.113 5.08121 461.113 3.3805V1.02889C461.113 0.461988 460.654 0.00146484 460.09 0.00146484H410.556H410.557Z" fill="white"/>
</mask>
<g mask="url(#mask5_1_5223)">
<path d="M461.1 -0.915043L406.937 0.0146484L407.503 33.2234L461.666 32.2937L461.1 -0.915043Z" fill="url(#paint5_linear_1_5223)"/>
</g>
<mask id="mask6_1_5223" style="mask-type:luminance" maskUnits="userSpaceOnUse" x="339" y="13" width="55" height="20">
<path d="M343.928 13.0557C341.522 13.0557 339.572 15.0125 339.572 17.4271V31.2582C339.572 31.8251 340.031 32.2842 340.596 32.2842H342.462C344.157 32.2842 345.531 30.9055 345.531 29.2048V20.0293C345.531 19.7451 345.761 19.5156 346.045 19.5156H390.131C391.826 19.5156 393.201 18.1368 393.201 16.4347V14.0817C393.201 13.5162 392.743 13.0557 392.177 13.0557H343.93H343.928Z" fill="white"/>
</mask>
<g mask="url(#mask6_1_5223)">
<path d="M393.184 12.1386L339.244 13.0645L339.587 33.2083L393.528 32.2824L393.184 12.1386Z" fill="url(#paint6_linear_1_5223)"/>
</g>
<defs>
<linearGradient id="paint0_linear_1_5223" x1="7.28282" y1="16.7024" x2="452.224" y2="9.11747" gradientUnits="userSpaceOnUse">
<stop stop-color="#1399D6"/>
<stop offset="0.1" stop-color="#1399D6"/>
<stop offset="1" stop-color="#2D2D78"/>
</linearGradient>
<linearGradient id="paint1_linear_1_5223" x1="7.29427" y1="17.522" x2="452.236" y2="9.93703" gradientUnits="userSpaceOnUse">
<stop stop-color="#1399D6"/>
<stop offset="0.1" stop-color="#1399D6"/>
<stop offset="1" stop-color="#2D2D78"/>
</linearGradient>
<linearGradient id="paint2_linear_1_5223" x1="7.3112" y1="18.8803" x2="452.253" y2="11.2953" gradientUnits="userSpaceOnUse">
<stop stop-color="#1399D6"/>
<stop offset="0.1" stop-color="#1399D6"/>
<stop offset="1" stop-color="#2D2D78"/>
</linearGradient>
<linearGradient id="paint3_linear_1_5223" x1="7.32477" y1="20.2256" x2="452.266" y2="12.6407" gradientUnits="userSpaceOnUse">
<stop stop-color="#1399D6"/>
<stop offset="0.1" stop-color="#1399D6"/>
<stop offset="1" stop-color="#2D2D78"/>
</linearGradient>
<linearGradient id="paint4_linear_1_5223" x1="7.34924" y1="21.0255" x2="452.291" y2="13.4405" gradientUnits="userSpaceOnUse">
<stop stop-color="#1399D6"/>
<stop offset="0.1" stop-color="#1399D6"/>
<stop offset="1" stop-color="#2D2D78"/>
</linearGradient>
<linearGradient id="paint5_linear_1_5223" x1="7.40451" y1="23.7707" x2="452.346" y2="16.1857" gradientUnits="userSpaceOnUse">
<stop stop-color="#1399D6"/>
<stop offset="0.1" stop-color="#1399D6"/>
<stop offset="1" stop-color="#2D2D78"/>
</linearGradient>
<linearGradient id="paint6_linear_1_5223" x1="7.47783" y1="28.7041" x2="452.419" y2="21.1192" gradientUnits="userSpaceOnUse">
<stop stop-color="#1399D6"/>
<stop offset="0.1" stop-color="#1399D6"/>
<stop offset="1" stop-color="#2D2D78"/>
</linearGradient>
</defs>
</svg>
